<svg version="1.1" id="Layer_1" xmlns="http://www.w3.org/2000/svg" xmlns:xlink="http://www.w3.org/1999/xlink" x="0px" y="0px"
	 width="100%" viewBox="0 0 782 205" enable-background="new 0 0 782 205" xml:space="preserve">
<path fill="#000000" opacity="1.000000" stroke="none" 
	d="
M571.000000,206.000000 
	C380.666687,206.000000 190.833374,206.000000 1.000051,206.000000 
	C1.000034,137.666702 1.000034,69.333397 1.000017,1.000069 
	C261.666595,1.000046 522.333191,1.000046 782.999878,1.000023 
	C782.999878,69.333260 782.999878,137.666519 782.999939,205.999893 
	C712.500000,206.000000 642.000000,206.000000 571.000000,206.000000 
M137.299454,161.204422 
	C137.263580,161.736282 137.227722,162.268143 137.118530,163.887527 
	C138.077499,162.285080 138.461395,161.643570 139.126648,160.364960 
	C139.672729,159.172989 140.218796,157.981018 141.499481,156.860321 
	C142.616394,155.969254 144.265930,155.303665 144.755554,154.147049 
	C146.609177,149.768326 149.000366,145.333313 149.518646,140.731079 
	C150.668869,130.517410 151.151154,120.136757 145.013733,110.495712 
	C145.013733,110.495712 145.114120,110.109337 145.697311,109.776398 
	C143.815643,106.131180 141.933990,102.485962 140.017075,98.087448 
	C134.191483,85.968758 127.553116,74.360222 119.328796,63.660320 
	C109.142960,50.408474 99.256248,36.926968 89.101402,23.650925 
	C85.129272,18.457926 83.711548,18.667381 79.944717,24.165266 
	C79.482399,24.840048 78.915443,25.442501 78.407326,26.086636 
	C68.414597,38.754337 58.219913,51.270092 48.519897,64.158150 
	C43.847656,70.365982 40.108318,77.275963 35.314045,84.147224 
	C34.513988,85.728401 33.713928,87.309578 32.948784,88.945602 
	C32.948784,88.945602 32.885605,88.930252 32.233280,89.191460 
	C29.458906,95.096291 26.684532,101.001129 23.986544,106.974571 
	C23.986544,106.974571 23.895155,106.928200 23.274578,107.234085 
	C22.905794,108.505745 22.537010,109.777405 21.896469,111.652046 
	C21.569891,112.432137 21.243313,113.212219 20.985319,113.991280 
	C20.985319,113.991280 20.963907,113.926109 20.277758,114.286598 
	C19.741014,116.122025 18.866102,117.932854 18.730471,119.797455 
	C18.311327,125.559647 18.173983,131.342331 17.982809,137.970108 
	C19.698942,144.311615 21.415073,150.653107 23.193029,157.698776 
	C25.326818,160.935989 27.460609,164.173187 29.594398,167.410400 
	C30.029587,167.110626 30.464775,166.810837 30.899961,166.511063 
	C30.554060,165.332245 30.208158,164.153427 30.167356,162.311539 
	C30.756132,160.914734 31.344906,159.517914 31.920443,158.876694 
	C34.239250,162.977615 36.558056,167.078552 39.160553,171.742065 
	C39.840717,172.530334 40.520882,173.318619 41.227844,174.581314 
	C41.432220,174.843521 41.697361,175.007462 42.003250,174.994232 
	C42.003250,174.994232 41.924091,175.013123 41.983055,175.724319 
	C43.971104,177.508636 45.959152,179.292969 47.997173,181.010208 
	C47.997173,181.010208 47.924751,181.052017 48.171368,181.705185 
	C52.982788,185.891724 58.297134,189.048477 65.527847,190.163681 
	C69.992912,190.809448 74.450851,191.921188 78.924744,191.989639 
	C85.327515,192.087585 91.851616,192.050064 98.128387,190.952362 
	C110.880569,188.722198 120.698608,181.556442 128.897156,171.026108 
	C130.140335,171.342377 131.480576,172.108215 132.603165,171.865891 
	C134.152390,171.531464 136.044464,170.778305 136.855682,169.574875 
	C137.734558,168.271072 138.039658,164.850372 137.738708,164.742538 
	C133.637543,163.272980 136.592987,160.053146 136.263733,157.240295 
	C136.883453,153.856812 137.503159,150.473312 138.810318,146.612976 
	C138.483734,143.074646 138.157135,139.536331 137.974945,135.148361 
	C137.974945,133.151550 137.974945,131.154739 137.974945,129.157944 
	C138.506729,129.166168 139.038513,129.174393 139.570297,129.182617 
	C143.078033,137.240936 142.550903,145.614319 140.208801,154.332367 
	C139.430740,156.543762 138.652679,158.755173 137.299454,161.204422 
M485.332092,156.993683 
	C496.461182,153.224991 506.460663,147.994690 513.119202,137.636887 
	C521.539612,124.538246 523.709595,110.491051 522.176575,95.121796 
	C520.089966,74.201508 509.262604,60.687485 489.700928,54.454800 
	C470.082214,48.203945 449.848907,51.030708 429.822968,52.282284 
	C428.798950,52.346287 427.200623,54.977898 427.128754,56.474525 
	C426.825623,62.785831 427.000000,69.120079 427.000000,75.445938 
	C426.999939,103.066437 427.000000,130.686935 427.000000,159.307495 
	C431.992004,159.557053 436.884094,159.401520 441.646210,160.114334 
	C456.196625,162.292313 470.393341,160.508820 485.332092,156.993683 
M679.000000,187.413513 
	C679.000000,189.511658 679.000000,191.609802 679.000000,193.656189 
	C687.673096,193.656189 695.726074,193.656189 704.099731,193.656189 
	C704.099731,181.422684 704.099731,169.529114 704.099731,157.049805 
	C710.733582,162.578354 717.802185,164.395416 725.851257,164.111435 
	C738.315063,163.671753 751.745605,154.841202 755.901001,143.159073 
	C759.966248,131.730591 761.234619,119.999161 757.926514,108.147858 
	C753.413086,91.978760 742.043396,81.103462 723.762817,82.060997 
	C715.017456,82.519089 707.394104,85.958084 701.414001,93.100128 
	C700.694885,89.701805 700.109009,86.932930 699.570007,84.385681 
	C692.238831,84.385681 685.180481,84.385681 679.000000,84.385681 
	C679.000000,118.659210 679.000000,152.544678 679.000000,187.413513 
M256.999939,145.679932 
	C257.386230,143.013046 256.547516,141.847397 253.548126,141.932709 
	C246.221191,142.141083 238.884323,142.000168 231.551453,142.000031 
	C225.118881,141.999908 218.686310,142.000000 212.368347,142.000000 
	C212.368347,133.289551 212.368347,125.228851 212.368347,116.854019 
	C225.676880,116.854019 238.619629,116.854019 251.717102,116.854019 
	C251.717102,110.132767 251.717102,103.741753 251.717102,96.848206 
	C238.376999,96.848206 225.312317,96.848206 212.374130,96.848206 
	C212.374130,89.277145 212.374130,82.216019 212.374130,74.842491 
	C226.355194,74.842491 239.964645,74.842491 253.711594,74.842491 
	C253.711594,67.787498 253.711594,61.062687 253.711594,54.332859 
	C231.364105,54.332859 209.306763,54.332859 187.376526,54.332859 
	C187.376526,90.724258 187.376526,126.781410 187.376526,162.755753 
	C210.693634,162.755753 233.633270,162.755753 257.000122,162.755753 
	C257.000122,157.229630 257.000122,151.936783 256.999939,145.679932 
M659.949890,101.714340 
	C656.550537,97.794716 653.630554,93.282883 649.659851,90.069168 
	C638.792297,81.273376 625.936157,80.465080 612.910217,83.172211 
	C600.940735,85.659790 591.696472,92.408722 586.637329,103.883293 
	C582.905518,112.347549 581.351013,121.078102 582.866516,130.506393 
	C584.643921,141.563980 589.144165,150.501755 598.399902,157.137344 
	C608.335510,164.260361 619.588806,164.894135 630.912964,163.776260 
	C639.989075,162.880280 648.261902,158.798065 654.448120,151.926224 
	C665.787476,139.330078 668.057190,117.911255 659.949890,101.714340 
M406.962372,153.521683 
	C408.963287,150.748734 411.121643,148.074570 412.935272,145.184113 
	C418.169250,136.842377 418.417175,127.513351 417.999786,118.085274 
	C417.365265,103.751350 408.404205,90.073326 394.169403,84.876060 
	C385.046143,81.545082 375.833191,81.039963 366.656952,83.139801 
	C354.350922,85.955818 344.843445,92.753746 339.935730,104.976372 
	C336.454529,113.646362 335.513336,122.365822 336.848511,131.754272 
	C339.414978,149.801025 353.784058,162.499802 371.518982,163.987122 
	C384.389282,165.066467 396.208771,162.355896 406.962372,153.521683 
M325.455841,83.986801 
	C316.440491,81.292976 307.319611,81.372620 298.244812,83.391945 
	C289.529205,85.331352 281.828552,89.197830 275.938599,96.229927 
	C266.777985,107.166908 264.532318,119.812599 267.090088,133.388962 
	C269.628754,146.863663 277.299194,156.274887 290.428345,161.160339 
	C300.323151,164.842255 310.283203,164.401047 320.467773,163.068375 
	C329.883972,161.836243 330.264130,161.743057 328.954132,152.780319 
	C328.415924,149.098206 327.478058,145.474503 326.867035,142.524384 
	C321.107483,143.086472 316.428436,143.903152 311.746399,143.920624 
	C303.502411,143.951401 297.131378,140.317810 293.944244,132.509705 
	C290.599274,124.314957 290.799957,116.094498 296.599915,109.004311 
	C303.330170,100.776901 312.452393,100.700096 321.821198,102.984978 
	C324.965363,103.751793 327.035400,104.418884 327.193420,99.853096 
	C327.314941,96.343407 328.119080,92.706062 329.396698,89.428391 
	C330.794525,85.842514 329.460571,84.606903 325.455841,83.986801 
M555.003540,88.501266 
	C553.562256,90.597549 552.120972,92.693825 549.763672,96.122375 
	C549.294678,91.154877 548.967834,87.693382 548.651917,84.346786 
	C541.295105,84.346786 534.237976,84.346786 527.773987,84.346786 
	C527.773987,110.678246 527.773987,136.656662 527.773987,162.695465 
	C536.599426,162.695465 544.647766,162.695465 553.000000,162.695465 
	C553.000000,148.777908 552.986145,135.162659 553.004944,121.547432 
	C553.017273,112.583649 558.299072,106.716263 567.102356,106.028168 
	C569.911682,105.808594 572.752625,105.993820 575.754700,105.993820 
	C575.754700,97.881477 575.754700,90.144745 575.754700,82.403931 
	C567.848083,80.678719 561.461487,83.517769 555.003540,88.501266 
z"/>
<path fill="#8AEC51" opacity="1.000000" stroke="none" 
	d="
M484.914856,157.002701 
	C470.393341,160.508820 456.196625,162.292313 441.646210,160.114334 
	C436.884094,159.401520 431.992004,159.557053 427.000000,159.307495 
	C427.000000,130.686935 426.999939,103.066437 427.000000,75.445938 
	C427.000000,69.120079 426.825623,62.785831 427.128754,56.474525 
	C427.200623,54.977898 428.798950,52.346287 429.822968,52.282284 
	C449.848907,51.030708 470.082214,48.203945 489.700928,54.454800 
	C509.262604,60.687485 520.089966,74.201508 522.176575,95.121796 
	C523.709595,110.491051 521.539612,124.538246 513.119202,137.636887 
	C506.460663,147.994690 496.461182,153.224991 484.914856,157.002701 
M452.000000,92.500137 
	C452.000122,107.152573 451.925568,121.805962 452.112366,136.456024 
	C452.131683,137.971390 453.647919,140.736069 454.568604,140.778595 
	C465.852081,141.299988 476.819305,140.361099 485.610504,131.906204 
	C494.079437,123.761246 496.067932,113.385941 495.993225,102.287071 
	C495.817688,76.199898 473.403931,65.750000 452.000000,71.658211 
	C452.000000,78.215706 452.000000,84.857964 452.000000,92.500137 
z"/>
<path fill="#8AEC51" opacity="1.000000" stroke="none" 
	d="
M679.000000,186.921814 
	C679.000000,152.544678 679.000000,118.659210 679.000000,84.385681 
	C685.180481,84.385681 692.238831,84.385681 699.570007,84.385681 
	C700.109009,86.932930 700.694885,89.701805 701.414001,93.100128 
	C707.394104,85.958084 715.017456,82.519089 723.762817,82.060997 
	C742.043396,81.103462 753.413086,91.978760 757.926514,108.147858 
	C761.234619,119.999161 759.966248,131.730591 755.901001,143.159073 
	C751.745605,154.841202 738.315063,163.671753 725.851257,164.111435 
	C717.802185,164.395416 710.733582,162.578354 704.099731,157.049805 
	C704.099731,169.529114 704.099731,181.422684 704.099731,193.656189 
	C695.726074,193.656189 687.673096,193.656189 679.000000,193.656189 
	C679.000000,191.609802 679.000000,189.511658 679.000000,186.921814 
M712.552673,143.112854 
	C718.674194,146.644119 723.780823,144.732468 728.362732,140.136139 
	C734.205505,134.274963 735.958557,121.281410 732.117188,112.483299 
	C728.737793,104.743370 722.385376,100.662773 715.908569,102.071434 
	C708.887634,103.598450 704.004517,110.301254 704.000305,118.420387 
	C703.998352,122.251015 703.936035,126.082954 704.014954,129.911957 
	C704.134338,135.705948 706.304382,140.333511 712.552673,143.112854 
z"/>
<path fill="#8AEC51" opacity="1.000000" stroke="none" 
	d="
M257.000031,146.161942 
	C257.000122,151.936783 257.000122,157.229630 257.000122,162.755753 
	C233.633270,162.755753 210.693634,162.755753 187.376526,162.755753 
	C187.376526,126.781410 187.376526,90.724258 187.376526,54.332859 
	C209.306763,54.332859 231.364105,54.332859 253.711594,54.332859 
	C253.711594,61.062687 253.711594,67.787498 253.711594,74.842491 
	C239.964645,74.842491 226.355194,74.842491 212.374130,74.842491 
	C212.374130,82.216019 212.374130,89.277145 212.374130,96.848206 
	C225.312317,96.848206 238.376999,96.848206 251.717102,96.848206 
	C251.717102,103.741753 251.717102,110.132767 251.717102,116.854019 
	C238.619629,116.854019 225.676880,116.854019 212.368347,116.854019 
	C212.368347,125.228851 212.368347,133.289551 212.368347,142.000000 
	C218.686310,142.000000 225.118881,141.999908 231.551453,142.000031 
	C238.884323,142.000168 246.221191,142.141083 253.548126,141.932709 
	C256.547516,141.847397 257.386230,143.013046 257.000031,146.161942 
z"/>
<path fill="#8AEC51" opacity="1.000000" stroke="none" 
	d="
M660.017334,102.093826 
	C668.057190,117.911255 665.787476,139.330078 654.448120,151.926224 
	C648.261902,158.798065 639.989075,162.880280 630.912964,163.776260 
	C619.588806,164.894135 608.335510,164.260361 598.399902,157.137344 
	C589.144165,150.501755 584.643921,141.563980 582.866516,130.506393 
	C581.351013,121.078102 582.905518,112.347549 586.637329,103.883293 
	C591.696472,92.408722 600.940735,85.659790 612.910217,83.172211 
	C625.936157,80.465080 638.792297,81.273376 649.659851,90.069168 
	C653.630554,93.282883 656.550537,97.794716 660.017334,102.093826 
M609.894348,113.507225 
	C607.184631,120.360870 608.334351,127.181305 609.982422,134.030121 
	C611.493530,140.309311 617.117065,145.698761 622.666565,145.999146 
	C628.470093,146.313278 634.749146,141.901367 636.686829,135.649796 
	C639.454041,126.722366 639.659241,117.639412 635.869629,108.999763 
	C632.486816,101.287666 623.944458,96.531136 616.092041,103.149971 
	C613.337402,105.471825 611.984009,109.455963 609.894348,113.507225 
z"/>
<path fill="#8AEC51" opacity="1.000000" stroke="none" 
	d="
M406.661316,153.729462 
	C396.208771,162.355896 384.389282,165.066467 371.518982,163.987122 
	C353.784058,162.499802 339.414978,149.801025 336.848511,131.754272 
	C335.513336,122.365822 336.454529,113.646362 339.935730,104.976372 
	C344.843445,92.753746 354.350922,85.955818 366.656952,83.139801 
	C375.833191,81.039963 385.046143,81.545082 394.169403,84.876060 
	C408.404205,90.073326 417.365265,103.751350 417.999786,118.085274 
	C418.417175,127.513351 418.169250,136.842377 412.935272,145.184113 
	C411.121643,148.074570 408.963287,150.748734 406.661316,153.729462 
M392.053345,121.046555 
	C390.962860,116.510071 390.385956,111.768814 388.675751,107.479424 
	C385.033295,98.343826 372.096619,97.641876 366.955963,106.095268 
	C360.354797,116.950371 360.386749,128.074875 366.108551,139.007584 
	C370.975403,148.306656 382.193146,148.367279 388.092346,139.755264 
	C391.854370,134.263214 392.174591,128.117844 392.053345,121.046555 
z"/>
<path fill="#8AEC51" opacity="1.000000" stroke="none" 
	d="
M325.884094,83.996674 
	C329.460571,84.606903 330.794525,85.842514 329.396698,89.428391 
	C328.119080,92.706062 327.314941,96.343407 327.193420,99.853096 
	C327.035400,104.418884 324.965363,103.751793 321.821198,102.984978 
	C312.452393,100.700096 303.330170,100.776901 296.599915,109.004311 
	C290.799957,116.094498 290.599274,124.314957 293.944244,132.509705 
	C297.131378,140.317810 303.502411,143.951401 311.746399,143.920624 
	C316.428436,143.903152 321.107483,143.086472 326.867035,142.524384 
	C327.478058,145.474503 328.415924,149.098206 328.954132,152.780319 
	C330.264130,161.743057 329.883972,161.836243 320.467773,163.068375 
	C310.283203,164.401047 300.323151,164.842255 290.428345,161.160339 
	C277.299194,156.274887 269.628754,146.863663 267.090088,133.388962 
	C264.532318,119.812599 266.777985,107.166908 275.938599,96.229927 
	C281.828552,89.197830 289.529205,85.331352 298.244812,83.391945 
	C307.319611,81.372620 316.440491,81.292976 325.884094,83.996674 
z"/>
<path fill="#88EE11" opacity="1.000000" stroke="none" 
	d="
M145.114120,110.109337 
	C145.114120,110.109337 145.013733,110.495712 145.016281,111.082619 
	C144.687653,116.785431 140.893524,117.492638 136.744125,117.809387 
	C136.376846,117.072212 136.214371,116.533936 136.331314,115.837318 
	C139.149231,112.161362 136.219772,112.342224 133.886124,111.833786 
	C133.293533,111.343071 132.918716,110.991356 132.481216,110.459938 
	C132.418549,110.280235 132.149826,110.004517 132.033447,109.682129 
	C131.227325,108.566696 130.537613,107.773643 129.545044,106.840363 
	C127.624458,105.130058 126.006737,103.559990 124.233467,101.728882 
	C123.986488,101.287079 123.895058,101.106308 123.876877,100.584763 
	C123.635117,98.665565 123.800156,96.729866 122.931870,95.563232 
	C112.658836,81.760338 102.241219,68.064919 91.836403,54.360371 
	C89.748169,51.609875 87.554352,48.939552 85.122185,45.870022 
	C78.550781,53.586308 73.181435,59.891125 67.612061,66.274902 
	C67.146675,66.520050 67.007393,66.759567 66.997910,67.038246 
	C67.001640,67.004066 67.069054,67.017616 66.720222,66.970055 
	C64.927040,68.972214 63.482693,71.021927 62.025719,73.040161 
	C62.013092,73.008690 62.080898,73.010155 61.723938,73.061035 
	C61.259563,73.763374 61.152153,74.414841 61.024673,75.035690 
	C61.004604,75.005074 61.069160,75.039612 60.713615,74.926315 
	C58.919823,76.898994 57.481579,78.984978 56.026028,81.039612 
	C56.008724,81.008270 56.075726,81.033516 55.697205,80.962814 
	C54.898266,81.948761 54.477844,83.005417 54.029800,84.032959 
	C54.002178,84.003853 54.072433,84.042549 53.728901,83.954498 
	C53.268391,84.268852 53.151409,84.671249 53.023067,85.041458 
	C53.011707,85.009254 53.077835,85.026299 52.726631,84.999954 
	C50.563576,87.740417 48.751728,90.507225 46.796928,93.568771 
	C42.049587,101.235245 37.445198,108.606995 32.473949,115.971405 
	C27.163893,114.956848 23.292646,112.975433 23.895155,106.928200 
	C23.895155,106.928200 23.986544,106.974571 24.300968,106.895355 
	C27.372129,100.854179 30.128866,94.892212 32.885605,88.930252 
	C32.885605,88.930252 32.948784,88.945602 33.285969,88.880295 
	C34.397614,87.165985 35.172070,85.516983 35.946533,83.867989 
	C40.108318,77.275963 43.847656,70.365982 48.519897,64.158150 
	C58.219913,51.270092 68.414597,38.754337 78.407326,26.086636 
	C78.915443,25.442501 79.482399,24.840048 79.944717,24.165266 
	C83.711548,18.667381 85.129272,18.457926 89.101402,23.650925 
	C99.256248,36.926968 109.142960,50.408474 119.328796,63.660320 
	C127.553116,74.360222 134.191483,85.968758 140.026947,98.855331 
	C141.729263,103.118591 143.421692,106.613968 145.114120,110.109337 
z"/>
<path fill="#8AEC51" opacity="1.000000" stroke="none" 
	d="
M555.266113,88.242279 
	C561.461487,83.517769 567.848083,80.678719 575.754700,82.403931 
	C575.754700,90.144745 575.754700,97.881477 575.754700,105.993820 
	C572.752625,105.993820 569.911682,105.808594 567.102356,106.028168 
	C558.299072,106.716263 553.017273,112.583649 553.004944,121.547432 
	C552.986145,135.162659 553.000000,148.777908 553.000000,162.695465 
	C544.647766,162.695465 536.599426,162.695465 527.773987,162.695465 
	C527.773987,136.656662 527.773987,110.678246 527.773987,84.346786 
	C534.237976,84.346786 541.295105,84.346786 548.651917,84.346786 
	C548.967834,87.693382 549.294678,91.154877 549.763672,96.122375 
	C552.120972,92.693825 553.562256,90.597549 555.266113,88.242279 
z"/>
<path fill="#7DB50F" opacity="1.000000" stroke="none" 
	d="
M128.110321,171.024841 
	C120.698608,181.556442 110.880569,188.722198 98.128387,190.952362 
	C91.851616,192.050064 85.327515,192.087585 78.924744,191.989639 
	C74.450851,191.921188 69.992912,190.809448 65.087296,189.673157 
	C62.202770,187.964249 59.768993,186.724854 57.312256,185.532761 
	C54.192822,184.019119 51.054771,182.543839 47.924751,181.052017 
	C47.924751,181.052017 47.997173,181.010208 48.123047,180.708374 
	C46.140644,178.608734 44.032368,176.810928 41.924088,175.013123 
	C41.924091,175.013123 42.003250,174.994232 41.919159,174.837692 
	C41.692234,174.414124 41.480896,174.222702 41.201050,174.106888 
	C40.520882,173.318619 39.840717,172.530334 39.244438,171.202240 
	C40.795597,171.269318 42.402119,171.666077 43.701233,172.526794 
	C46.424198,174.330933 48.985371,176.379242 50.637550,177.604126 
	C53.780197,174.406662 55.983669,172.164749 58.493137,170.070801 
	C63.839912,172.522644 68.880692,174.826538 74.116241,177.466324 
	C80.862892,180.605316 87.423782,180.263763 94.367218,177.896637 
	C102.233734,174.647446 110.357162,172.391632 115.565529,165.619110 
	C113.676971,169.493515 111.678307,172.960083 109.679642,176.426666 
	C109.847939,176.886536 110.016235,177.346405 110.184540,177.806274 
	C114.253082,176.458710 118.393959,175.290390 122.360321,173.689621 
	C124.410240,172.862320 126.150406,171.267471 128.026413,170.272675 
	C128.051651,170.692245 128.080978,170.858536 128.110321,171.024841 
M54.510639,179.738998 
	C54.797626,179.939102 55.084614,180.139221 55.371597,180.339340 
	C55.187233,180.041840 55.002865,179.744354 54.510639,179.738998 
z"/>
<path fill="#8BDC1A" opacity="1.000000" stroke="none" 
	d="
M136.948914,118.008293 
	C140.893524,117.492638 144.687653,116.785431 145.033981,111.281433 
	C151.151154,120.136757 150.668869,130.517410 149.518646,140.731079 
	C149.000366,145.333313 146.609177,149.768326 144.755554,154.147049 
	C144.265930,155.303665 142.616394,155.969254 141.154572,156.485260 
	C140.829620,155.432739 140.849579,154.755280 140.869537,154.077835 
	C142.550903,145.614319 143.078033,137.240936 139.570297,129.182617 
	C139.038513,129.174393 138.506729,129.166168 137.974945,129.157944 
	C137.974945,131.154739 137.974945,133.151550 137.568924,135.473999 
	C136.112503,132.867554 135.062119,129.935486 134.289581,126.874001 
	C134.964417,125.626831 135.361404,124.509094 135.866974,123.061172 
	C136.300018,121.156761 136.624466,119.582527 136.948914,118.008293 
z"/>
<path fill="#86D813" opacity="1.000000" stroke="none" 
	d="
M134.011719,127.003426 
	C135.062119,129.935486 136.112503,132.867554 137.496735,135.898804 
	C138.157135,139.536331 138.483734,143.074646 138.222015,146.648071 
	C137.270279,145.783081 136.906860,144.883011 136.456177,143.766769 
	C135.545456,145.190552 134.724747,146.473602 133.853745,147.835312 
	C131.698624,146.110092 129.856033,144.635071 128.576767,143.610992 
	C126.908447,146.402481 125.536873,148.697464 124.262207,150.584656 
	C124.223701,143.494232 124.088264,136.811600 123.961273,129.761047 
	C123.023170,127.932701 122.076637,126.472275 120.992264,124.711548 
	C120.514122,123.634056 120.173828,122.856857 120.234604,122.064270 
	C121.663193,122.374725 122.708519,122.653557 123.714996,123.034943 
	C127.154610,124.338318 130.580551,125.677750 134.011719,127.003426 
z"/>
<path fill="#7FBF0F" opacity="1.000000" stroke="none" 
	d="
M58.187141,169.922836 
	C55.983669,172.164749 53.780197,174.406662 50.637550,177.604126 
	C48.985371,176.379242 46.424198,174.330933 43.701233,172.526794 
	C42.402119,171.666077 40.795597,171.269318 39.102592,170.920929 
	C36.558056,167.078552 34.239250,162.977615 31.988941,158.147690 
	C32.078194,156.943771 32.098942,156.468857 32.445866,156.077606 
	C34.186710,157.483292 35.489632,158.957001 37.037930,160.097626 
	C40.986893,163.006851 43.343307,161.976334 43.992390,157.177948 
	C44.103630,156.355576 44.100487,155.517731 44.419525,154.892838 
	C45.798805,156.689270 46.908749,158.279892 48.391350,159.890259 
	C51.905056,163.247604 55.046101,166.585220 58.187141,169.922836 
z"/>
<path fill="#82CB10" opacity="1.000000" stroke="none" 
	d="
M124.165291,150.992432 
	C125.536873,148.697464 126.908447,146.402481 128.576767,143.610992 
	C129.856033,144.635071 131.698624,146.110092 133.853745,147.835312 
	C134.724747,146.473602 135.545456,145.190552 136.456177,143.766769 
	C136.906860,144.883011 137.270279,145.783081 137.878281,146.886505 
	C137.503159,150.473312 136.883453,153.856812 135.763947,157.717941 
	C134.627884,159.520782 133.991638,160.845993 133.031372,162.004913 
	C131.730637,160.646973 130.753922,159.455307 129.806381,158.299271 
	C126.973503,159.497910 125.516388,164.484512 122.280251,160.779922 
	C120.187439,161.983917 118.549698,162.926117 117.071190,163.561874 
	C119.542046,159.167755 121.853668,155.080093 124.165291,150.992432 
z"/>
<path fill="#88E113" opacity="1.000000" stroke="none" 
	d="
M23.584866,107.081146 
	C23.292646,112.975433 27.163893,114.956848 32.543804,116.342484 
	C31.923607,119.228317 30.866693,121.735718 29.481899,124.301422 
	C27.761364,128.245544 26.368710,132.131378 24.644886,136.094727 
	C23.546379,137.277420 22.779043,138.382584 22.015875,139.481735 
	C21.299458,134.495087 20.615305,129.733017 19.970770,124.560364 
	C20.328228,120.741898 20.646067,117.334000 20.963907,113.926109 
	C20.963907,113.926109 20.985319,113.991280 21.234890,113.914047 
	C21.712385,112.907570 21.940306,111.978317 22.168226,111.049065 
	C22.537010,109.777405 22.905794,108.505745 23.584866,107.081146 
z"/>
<path fill="#8DD121" opacity="1.000000" stroke="none" 
	d="
M19.931152,124.970940 
	C20.615305,129.733017 21.299458,134.495087 22.015875,139.481735 
	C22.779043,138.382584 23.546379,137.277420 24.634247,136.558289 
	C24.913965,139.070419 24.598898,141.236664 24.902723,143.312332 
	C25.271019,145.828445 26.162188,148.268021 26.924910,151.136185 
	C26.967897,152.341507 26.913084,153.151382 26.615072,154.165878 
	C25.291651,155.245209 24.211428,156.119919 23.131207,156.994614 
	C21.415073,150.653107 19.698942,144.311615 18.242256,137.239532 
	C18.978188,132.662964 19.454670,128.816956 19.931152,124.970940 
z"/>
<path fill="#D2EF99" opacity="1.000000" stroke="none" 
	d="
M133.355392,162.171188 
	C133.991638,160.845993 134.627884,159.520782 135.537415,158.030411 
	C136.592987,160.053146 133.637543,163.272980 137.738708,164.742538 
	C138.039658,164.850372 137.734558,168.271072 136.855682,169.574875 
	C136.044464,170.778305 134.152390,171.531464 132.603165,171.865891 
	C131.480576,172.108215 130.140335,171.342377 128.503738,171.025482 
	C128.080978,170.858536 128.051651,170.692245 128.011566,170.267334 
	C128.000839,170.008743 128.012878,170.034668 128.241226,169.919876 
	C128.658478,169.533997 128.847382,169.262909 129.292099,168.772491 
	C130.817078,166.425842 132.086243,164.298523 133.355392,162.171188 
z"/>
<path fill="#B2EA59" opacity="1.000000" stroke="none" 
	d="
M19.970772,124.560364 
	C19.454670,128.816956 18.978188,132.662964 18.214458,136.813019 
	C18.173983,131.342331 18.311327,125.559647 18.730471,119.797455 
	C18.866102,117.932854 19.741014,116.122025 20.620832,114.106354 
	C20.646067,117.334000 20.328228,120.741898 19.970772,124.560364 
z"/>
<path fill="#A2D650" opacity="1.000000" stroke="none" 
	d="
M23.162117,157.346695 
	C24.211428,156.119919 25.291651,155.245209 26.699612,154.495209 
	C27.053627,155.071945 27.079903,155.523987 27.154087,156.325439 
	C28.088749,158.774765 28.975504,160.874695 29.862259,162.974609 
	C30.208158,164.153427 30.554060,165.332245 30.899961,166.511063 
	C30.464775,166.810837 30.029587,167.110626 29.594398,167.410400 
	C27.460609,164.173187 25.326818,160.935989 23.162117,157.346695 
z"/>
<path fill="#D3EF98" opacity="1.000000" stroke="none" 
	d="
M48.048058,181.378601 
	C51.054771,182.543839 54.192822,184.019119 57.312256,185.532761 
	C59.768993,186.724854 62.202770,187.964249 64.712585,189.499252 
	C58.297134,189.048477 52.982788,185.891724 48.048058,181.378601 
z"/>
<path fill="#DCF3AA" opacity="1.000000" stroke="none" 
	d="
M30.014809,162.643066 
	C28.975504,160.874695 28.088749,158.774765 27.550472,156.334259 
	C28.316063,154.330292 28.733175,152.666916 29.390842,150.993134 
	C29.631397,150.982727 30.111000,150.939163 30.264793,151.002228 
	C30.418585,151.065308 30.749166,151.100449 30.747105,151.433258 
	C31.084280,152.558884 31.423517,153.351730 31.749023,154.464752 
	C31.863426,155.187958 31.991560,155.590942 32.119694,155.993942 
	C32.098942,156.468857 32.078194,156.943771 31.995560,157.769897 
	C31.344906,159.517914 30.756132,160.914734 30.014809,162.643066 
z"/>
<path fill="#88E113" opacity="1.000000" stroke="none" 
	d="
M32.559441,89.060852 
	C30.128866,94.892212 27.372129,100.854179 24.262774,106.861053 
	C26.684532,101.001129 29.458906,95.096291 32.559441,89.060852 
z"/>
<path fill="#8BDC1A" opacity="1.000000" stroke="none" 
	d="
M145.405716,109.942871 
	C143.421692,106.613968 141.729263,103.118591 140.044586,99.231979 
	C141.933990,102.485962 143.815643,106.131180 145.405716,109.942871 
z"/>
<path fill="#D3EF98" opacity="1.000000" stroke="none" 
	d="
M41.953571,175.368713 
	C44.032368,176.810928 46.140644,178.608734 48.098061,180.741913 
	C45.959152,179.292969 43.971104,177.508636 41.953571,175.368713 
z"/>
<path fill="#88E113" opacity="1.000000" stroke="none" 
	d="
M35.630287,84.007607 
	C35.172070,85.516983 34.397614,87.165985 33.268509,88.852875 
	C33.713928,87.309578 34.513988,85.728401 35.630287,84.007607 
z"/>
<path fill="#D3F2A1" opacity="1.000000" stroke="none" 
	d="
M140.539169,154.205109 
	C140.849579,154.755280 140.829620,155.432739 140.787262,156.449615 
	C140.218796,157.981018 139.672729,159.172989 138.743469,160.670105 
	C138.360291,160.975266 137.874619,160.966583 137.874603,160.966583 
	C138.652679,158.755173 139.430740,156.543762 140.539169,154.205109 
z"/>
<path fill="#B2EA59" opacity="1.000000" stroke="none" 
	d="
M22.032349,111.350555 
	C21.940306,111.978317 21.712385,112.907570 21.200598,113.914566 
	C21.243313,113.212219 21.569891,112.432137 22.032349,111.350555 
z"/>
<path fill="#C6EF88" opacity="1.000000" stroke="none" 
	d="
M137.587036,161.085510 
	C137.874619,160.966583 138.360291,160.975266 138.602783,160.988663 
	C138.461395,161.643570 138.077499,162.285080 137.118530,163.887527 
	C137.227722,162.268143 137.263580,161.736282 137.587036,161.085510 
z"/>
<path fill="#D3EF98" opacity="1.000000" stroke="none" 
	d="
M41.214447,174.344101 
	C41.480896,174.222702 41.692234,174.414124 41.929169,174.877136 
	C41.697361,175.007462 41.432220,174.843521 41.214447,174.344101 
z"/>
<path fill="#000000" opacity="1.000000" stroke="none" 
	d="
M452.000000,92.000183 
	C452.000000,84.857964 452.000000,78.215706 452.000000,71.658211 
	C473.403931,65.750000 495.817688,76.199898 495.993225,102.287071 
	C496.067932,113.385941 494.079437,123.761246 485.610504,131.906204 
	C476.819305,140.361099 465.852081,141.299988 454.568604,140.778595 
	C453.647919,140.736069 452.131683,137.971390 452.112366,136.456024 
	C451.925568,121.805962 452.000122,107.152573 452.000000,92.000183 
z"/>
<path fill="#000000" opacity="1.000000" stroke="none" 
	d="
M712.169678,143.036453 
	C706.304382,140.333511 704.134338,135.705948 704.014954,129.911957 
	C703.936035,126.082954 703.998352,122.251015 704.000305,118.420387 
	C704.004517,110.301254 708.887634,103.598450 715.908569,102.071434 
	C722.385376,100.662773 728.737793,104.743370 732.117188,112.483299 
	C735.958557,121.281410 734.205505,134.274963 728.362732,140.136139 
	C723.780823,144.732468 718.674194,146.644119 712.169678,143.036453 
z"/>
<path fill="#000000" opacity="1.000000" stroke="none" 
	d="
M609.942566,113.094139 
	C611.984009,109.455963 613.337402,105.471825 616.092041,103.149971 
	C623.944458,96.531136 632.486816,101.287666 635.869629,108.999763 
	C639.659241,117.639412 639.454041,126.722366 636.686829,135.649796 
	C634.749146,141.901367 628.470093,146.313278 622.666565,145.999146 
	C617.117065,145.698761 611.493530,140.309311 609.982422,134.030121 
	C608.334351,127.181305 607.184631,120.360870 609.942566,113.094139 
z"/>
<path fill="#000000" opacity="1.000000" stroke="none" 
	d="
M392.207336,121.453720 
	C392.174591,128.117844 391.854370,134.263214 388.092346,139.755264 
	C382.193146,148.367279 370.975403,148.306656 366.108551,139.007584 
	C360.386749,128.074875 360.354797,116.950371 366.955963,106.095268 
	C372.096619,97.641876 385.033295,98.343826 388.675751,107.479424 
	C390.385956,111.768814 390.962860,116.510071 392.207336,121.453720 
z"/>
<path fill="#89EE12" opacity="1.000000" stroke="none" 
	d="
M123.803619,100.925545 
	C123.895058,101.106308 123.986488,101.287079 124.184662,102.073700 
	C124.885185,104.073433 125.478973,105.467308 125.924530,107.191132 
	C125.564026,109.228264 125.351753,110.935448 125.168823,112.406624 
	C120.906204,114.861366 117.906639,113.651825 115.281738,109.948280 
	C114.343163,108.623993 112.395241,108.015076 110.945419,107.037224 
	C110.982834,106.994804 110.917526,107.083267 110.933426,106.711914 
	C108.805122,103.837646 106.660927,101.334724 104.367935,98.773041 
	C104.219131,98.714279 104.124344,98.408669 104.339890,98.063232 
	C103.675003,96.837318 102.794563,95.956848 101.951225,95.035950 
	C101.988327,94.995522 101.923035,95.080811 101.930916,94.700714 
	C101.154427,93.838432 100.370056,93.356247 99.415733,92.810410 
	C99.245781,92.746758 99.121529,92.405731 99.337189,92.060776 
	C98.675598,90.836250 97.798355,89.956673 96.960861,89.039307 
	C97.000610,89.001526 96.923149,89.080452 96.933289,88.705551 
	C95.933800,87.578987 94.924179,86.827324 93.956360,86.038437 
	C93.998161,86.001221 93.923531,86.084572 93.942787,85.810654 
	C93.622002,85.063171 93.281960,84.589600 92.585342,84.064560 
	C90.356346,82.052658 88.633507,79.905899 86.537895,78.223457 
	C85.699341,77.550232 83.359200,77.302818 82.857155,77.874870 
	C76.789848,84.788223 70.776520,91.763351 65.080696,98.983925 
	C60.192547,105.180626 55.731800,111.714470 51.047752,117.725159 
	C49.883327,116.404663 47.831268,114.561409 47.754848,114.639984 
	C43.124725,119.399757 42.376171,114.642220 40.877132,111.525452 
	C40.936859,110.410507 40.951054,109.671089 40.976631,108.963135 
	C40.988010,108.994606 40.921089,108.993362 41.263466,108.942375 
	C42.062099,107.904610 42.518360,106.917831 42.983170,105.964172 
	C42.991714,105.997292 42.923702,106.004646 43.266289,105.908188 
	C44.415062,104.144737 45.221249,102.477760 46.155220,100.504662 
	C47.093342,99.376205 47.990547,98.622360 48.700989,97.721268 
	C59.667660,83.811592 70.593269,69.869522 81.575165,55.971920 
	C83.339554,53.739086 85.610947,52.701603 87.767181,55.353809 
	C92.253868,60.872498 96.548401,66.547401 100.954231,72.521744 
	C101.679321,73.239403 102.372078,73.593422 103.034439,73.971939 
	C103.004028,73.996437 103.042618,73.928551 102.916199,74.285553 
	C103.504768,75.280159 104.219742,75.917755 104.955231,76.538818 
	C104.975731,76.522278 104.923096,76.522232 104.873672,76.901665 
	C106.242691,78.846863 107.661125,80.412628 109.046127,81.984406 
	C109.012680,81.990417 109.032219,81.925323 108.967438,82.263329 
	C109.293755,82.723640 109.684853,82.845955 110.042671,82.980431 
	C110.009384,82.992592 110.042839,82.930099 109.921822,83.287994 
	C110.559029,84.420700 111.317261,85.195511 112.042458,85.980606 
	C112.009430,85.990906 112.038139,85.927956 111.936340,86.245346 
	C112.520470,87.630440 113.206398,88.698158 114.220055,89.921722 
	C115.525810,91.361198 116.439590,92.700623 117.495552,93.916573 
	C119.556198,96.289406 121.696373,98.593178 123.803619,100.925545 
z"/>
<path fill="#000000" opacity="1.000000" stroke="none" 
	d="
M104.923096,76.522232 
	C104.923096,76.522232 104.975731,76.522278 104.995255,76.126221 
	C104.357391,75.129631 103.700005,74.529091 103.042618,73.928551 
	C103.042618,73.928551 103.004028,73.996437 103.019272,73.602585 
	C102.330315,72.858528 101.626106,72.508316 100.921906,72.158112 
	C96.548401,66.547401 92.253868,60.872498 87.767181,55.353809 
	C85.610947,52.701603 83.339554,53.739086 81.575165,55.971920 
	C70.593269,69.869522 59.667660,83.811592 48.700989,97.721268 
	C47.990547,98.622360 47.093342,99.376205 45.772629,100.579506 
	C44.482731,102.641861 43.703217,104.323250 42.923706,106.004646 
	C42.923702,106.004646 42.991714,105.997292 42.600540,105.984512 
	C41.779938,106.978935 41.350513,107.986153 40.921089,108.993362 
	C40.921089,108.993362 40.988010,108.994606 40.654926,109.053818 
	C39.859753,110.054932 39.397663,110.996826 38.962830,111.971283 
	C38.990089,112.003853 38.948334,111.931404 38.606869,112.046982 
	C36.896435,115.137962 35.527462,118.113365 34.079567,121.440247 
	C33.334435,123.463730 32.668217,125.135735 31.654654,126.989639 
	C28.434254,134.920578 26.427811,142.748062 29.150291,151.003540 
	C28.733175,152.666916 28.316063,154.330292 27.502563,155.984863 
	C27.079903,155.523987 27.053627,155.071945 26.942812,154.290558 
	C26.913084,153.151382 26.967897,152.341507 26.967144,150.739105 
	C26.874470,146.485107 26.453773,142.974472 26.889801,139.573669 
	C27.550140,134.423370 28.806604,129.349472 29.809782,124.243118 
	C30.866693,121.735718 31.923607,119.228317 32.910664,116.349831 
	C37.445198,108.606995 42.049587,101.235245 47.163719,93.456177 
	C49.474918,90.374664 51.276375,87.700478 53.077835,85.026299 
	C53.077835,85.026299 53.011707,85.009254 53.292091,84.987885 
	C53.739132,84.658531 53.905785,84.350540 54.072433,84.042549 
	C54.072433,84.042549 54.002178,84.003853 54.349556,83.937958 
	C55.156528,82.925873 55.616127,81.979698 56.075726,81.033516 
	C56.075726,81.033516 56.008724,81.008270 56.391304,81.019882 
	C58.205643,79.034203 59.637402,77.036903 61.069160,75.039612 
	C61.069160,75.039612 61.004604,75.005074 61.336845,74.941391 
	C61.806358,74.255188 61.943630,73.632668 62.080902,73.010155 
	C62.080898,73.010155 62.013092,73.008690 62.388275,73.023651 
	C64.198654,71.031609 65.633858,69.024612 67.069054,67.017616 
	C67.069054,67.017616 67.001640,67.004066 67.216278,66.973167 
	C67.764503,66.798866 67.891556,66.550087 67.812080,66.195938 
	C73.181435,59.891125 78.550781,53.586308 85.122185,45.870022 
	C87.554352,48.939552 89.748169,51.609875 91.836403,54.360371 
	C102.241219,68.064919 112.658836,81.760338 122.931870,95.563232 
	C123.800156,96.729866 123.635117,98.665565 123.876877,100.584763 
	C121.696373,98.593178 119.556198,96.289406 117.495552,93.916573 
	C116.439590,92.700623 115.525810,91.361198 114.246902,89.547440 
	C113.310059,87.987518 112.674103,86.957733 112.038139,85.927956 
	C112.038139,85.927956 112.009430,85.990906 112.015961,85.649681 
	C111.362617,84.515671 110.702728,83.722885 110.042839,82.930099 
	C110.042839,82.930099 110.009384,82.992592 109.988647,82.708649 
	C109.656021,82.258247 109.344116,82.091789 109.032219,81.925323 
	C109.032219,81.925323 109.012680,81.990417 109.007240,81.613518 
	C107.642235,79.665154 106.282661,78.093697 104.923096,76.522232 
z"/>
<path fill="#000000" opacity="1.000000" stroke="none" 
	d="
M126.072762,106.861183 
	C125.478973,105.467308 124.885185,104.073433 124.340202,102.334732 
	C126.006737,103.559990 127.624458,105.130058 129.498596,107.222115 
	C130.069962,108.791687 130.384918,109.839279 130.331848,110.568069 
	C129.328323,110.129181 128.692871,110.009079 127.945984,109.592888 
	C127.247292,108.484924 126.660027,107.673058 126.072762,106.861183 
z"/>
<path fill="#D1F297" opacity="1.000000" stroke="none" 
	d="
M52.726627,84.999954 
	C51.276375,87.700478 49.474918,90.374664 47.306671,93.161446 
	C48.751728,90.507225 50.563576,87.740417 52.726627,84.999954 
z"/>
<path fill="#DCF4AD" opacity="1.000000" stroke="none" 
	d="
M136.744110,117.809387 
	C136.624466,119.582527 136.300018,121.156761 135.624542,123.227745 
	C134.886307,124.135780 134.499100,124.547058 134.021240,124.639389 
	C133.859848,123.884102 133.789108,123.447769 133.803162,122.710907 
	C133.917450,121.996559 133.946945,121.582733 134.056152,121.121201 
	C134.135849,121.073494 134.064209,120.902077 134.411041,120.795959 
	C134.824448,119.482079 134.891037,118.274315 134.970596,116.763977 
	C135.001053,116.260269 135.018539,116.059128 135.289810,115.893753 
	C135.713028,115.951561 135.882462,115.973610 136.051895,115.995659 
	C136.214371,116.533936 136.376846,117.072212 136.744110,117.809387 
z"/>
<path fill="#8BDC1A" opacity="1.000000" stroke="none" 
	d="
M136.331314,115.837318 
	C135.882462,115.973610 135.713028,115.951561 134.906540,115.847198 
	C134.032883,115.865913 133.796295,115.966942 133.479950,115.638474 
	C133.634750,114.130257 133.869324,113.051521 134.103897,111.972786 
	C136.219772,112.342224 139.149231,112.161362 136.331314,115.837318 
z"/>
<path fill="#D1F297" opacity="1.000000" stroke="none" 
	d="
M66.720222,66.970055 
	C65.633858,69.024612 64.198654,71.031609 62.400902,73.055122 
	C63.482693,71.021927 64.927040,68.972214 66.720222,66.970055 
z"/>
<path fill="#D1F297" opacity="1.000000" stroke="none" 
	d="
M60.713612,74.926315 
	C59.637402,77.036903 58.205643,79.034203 56.408607,81.051224 
	C57.481579,78.984978 58.919823,76.898994 60.713612,74.926315 
z"/>
<path fill="#D3F2A1" opacity="1.000000" stroke="none" 
	d="
M133.886124,111.833786 
	C133.869324,113.051521 133.634750,114.130257 133.448090,115.658226 
	C133.496017,116.107460 133.444977,116.051247 133.107574,115.983871 
	C132.543533,115.952087 132.316925,115.987671 132.066406,116.003036 
	C132.042480,115.982811 132.049423,116.045074 132.010162,115.633759 
	C131.948547,113.847168 131.926178,112.471886 132.062164,110.980026 
	C132.220505,110.863449 132.543884,110.639641 132.543884,110.639641 
	C132.918716,110.991356 133.293533,111.343071 133.886124,111.833786 
z"/>
<path fill="#E0F4B3" opacity="1.000000" stroke="none" 
	d="
M130.699890,110.886864 
	C130.384918,109.839279 130.069962,108.791687 129.801437,107.362350 
	C130.537613,107.773643 131.227325,108.566696 131.794434,109.748817 
	C131.349075,110.241173 131.077347,110.421371 130.790741,110.690094 
	C130.724823,110.701698 130.699890,110.886864 130.699890,110.886864 
z"/>
<path fill="#D1F297" opacity="1.000000" stroke="none" 
	d="
M55.697205,80.962814 
	C55.616127,81.979698 55.156528,82.925873 54.377174,83.967056 
	C54.477844,83.005417 54.898266,81.948761 55.697205,80.962814 
z"/>
<path fill="#D1F297" opacity="1.000000" stroke="none" 
	d="
M61.723938,73.061035 
	C61.943630,73.632668 61.806358,74.255188 61.356915,74.972000 
	C61.152153,74.414841 61.259563,73.763374 61.723938,73.061035 
z"/>
<path fill="#D1F297" opacity="1.000000" stroke="none" 
	d="
M67.612061,66.274902 
	C67.891556,66.550087 67.764503,66.798866 67.212555,67.007347 
	C67.007393,66.759567 67.146675,66.520050 67.612061,66.274902 
z"/>
<path fill="#D3F2A1" opacity="1.000000" stroke="none" 
	d="
M130.856659,110.678497 
	C131.077347,110.421371 131.349075,110.241173 131.910828,110.071198 
	C132.149826,110.004517 132.418549,110.280235 132.481216,110.459938 
	C132.543884,110.639641 132.220505,110.863449 131.821014,110.951782 
	C131.421539,111.040123 130.947632,110.934311 130.900574,110.879005 
	C130.853516,110.823700 130.856659,110.678497 130.856659,110.678497 
z"/>
<path fill="#D1F297" opacity="1.000000" stroke="none" 
	d="
M53.728905,83.954498 
	C53.905785,84.350540 53.739132,84.658531 53.303452,85.020081 
	C53.151409,84.671249 53.268391,84.268852 53.728905,83.954498 
z"/>
<path fill="#000000" opacity="1.000000" stroke="none" 
	d="
M51.082039,118.099213 
	C55.731800,111.714470 60.192547,105.180626 65.080696,98.983925 
	C70.776520,91.763351 76.789848,84.788223 82.857155,77.874870 
	C83.359200,77.302818 85.699341,77.550232 86.537895,78.223457 
	C88.633507,79.905899 90.356346,82.052658 92.607422,84.368301 
	C93.298553,85.177200 93.611038,85.630890 93.923531,86.084572 
	C93.923531,86.084572 93.998161,86.001221 94.070259,86.328430 
	C95.069290,87.463905 95.996223,88.272179 96.923149,89.080452 
	C96.923149,89.080452 97.000610,89.001526 97.070450,89.322403 
	C97.800705,90.564095 98.461113,91.484917 99.121529,92.405731 
	C99.121529,92.405731 99.245781,92.746758 99.558311,93.038910 
	C100.554909,93.914307 101.238976,94.497559 101.923035,95.080811 
	C101.923035,95.080811 101.988327,94.995522 101.984558,95.345146 
	C102.695305,96.599403 103.409828,97.504036 104.124344,98.408669 
	C104.124344,98.408669 104.219131,98.714279 104.534592,99.044662 
	C106.872536,101.944458 108.895027,104.513863 110.917526,107.083267 
	C110.917526,107.083267 110.982834,106.994804 110.982346,107.394165 
	C113.932419,112.555573 116.882973,117.317612 119.833527,122.079659 
	C120.173828,122.856857 120.514122,123.634056 121.030205,125.056618 
	C122.121605,127.177643 123.037216,128.653305 123.952827,130.128967 
	C124.088264,136.811600 124.223701,143.494232 124.262207,150.584656 
	C121.853668,155.080093 119.542046,159.167755 117.066681,163.572357 
	C116.902931,163.889282 116.883545,163.885712 116.644562,163.967957 
	C116.104889,164.439774 115.804207,164.829361 115.491989,165.230225 
	C115.480446,165.241531 115.455421,165.211288 115.455421,165.211288 
	C110.357162,172.391632 102.233734,174.647446 94.149246,177.528137 
	C87.010262,177.124603 80.465866,177.127518 73.921463,177.130432 
	C68.880692,174.826538 63.839912,172.522644 58.493141,170.070801 
	C55.046101,166.585220 51.905056,163.247604 48.375069,159.499420 
	C45.623135,151.631256 42.731087,144.269638 43.917000,135.800461 
	C44.044868,134.640259 44.086231,133.863449 44.447193,132.897354 
	C46.871872,127.838448 48.976955,122.968834 51.082039,118.099213 
z"/>
<path fill="#7DBE0B" opacity="1.000000" stroke="none" 
	d="
M133.031372,162.004913 
	C132.086243,164.298523 130.817078,166.425842 129.076416,168.898346 
	C128.335526,169.453323 128.138184,169.717041 128.012878,170.034668 
	C128.012878,170.034668 128.000839,170.008743 128.015686,170.014069 
	C126.150406,171.267471 124.410240,172.862320 122.360321,173.689621 
	C118.393959,175.290390 114.253082,176.458710 110.184540,177.806274 
	C110.016235,177.346405 109.847939,176.886536 109.679642,176.426666 
	C111.678307,172.960083 113.676971,169.493515 115.565529,165.619110 
	C115.455421,165.211288 115.480446,165.241531 115.792694,165.328049 
	C116.364471,164.904953 116.624008,164.395325 116.883545,163.885712 
	C116.883545,163.885712 116.902931,163.889282 116.907440,163.878799 
	C118.549698,162.926117 120.187439,161.983917 122.280251,160.779922 
	C125.516388,164.484512 126.973503,159.497910 129.806381,158.299271 
	C130.753922,159.455307 131.730637,160.646973 133.031372,162.004913 
z"/>
<path fill="#DDF2A9" opacity="1.000000" stroke="none" 
	d="
M74.116249,177.466324 
	C80.465866,177.127518 87.010262,177.124603 93.772629,177.490204 
	C87.423782,180.263763 80.862892,180.605316 74.116249,177.466324 
z"/>
<path fill="#7FBF0F" opacity="1.000000" stroke="none" 
	d="
M54.664566,179.592926 
	C55.002865,179.744354 55.187233,180.041840 55.371597,180.339340 
	C55.084614,180.139221 54.797626,179.939102 54.664566,179.592926 
z"/>
<path fill="#8AE415" opacity="1.000000" stroke="none" 
	d="
M120.234604,122.064270 
	C116.882973,117.317612 113.932419,112.555573 110.944939,107.436584 
	C112.395241,108.015076 114.343163,108.623993 115.281738,109.948280 
	C117.906639,113.651825 120.906204,114.861366 125.168823,112.406624 
	C125.351753,110.935448 125.564026,109.228264 125.924530,107.191132 
	C126.660027,107.673058 127.247292,108.484924 127.880066,109.964798 
	C129.001083,112.409912 130.076599,114.187027 131.378891,115.957245 
	C131.605667,115.950356 132.049423,116.045074 132.049423,116.045074 
	C132.049423,116.045074 132.042480,115.982811 132.043243,116.292953 
	C132.366623,117.030281 132.689240,117.457481 132.966064,117.884933 
	C132.920258,117.885193 132.891586,117.798195 132.936218,118.152977 
	C133.033493,118.980545 133.086105,119.453339 132.793228,120.010506 
	C131.686310,121.448105 130.924881,122.801323 129.867966,124.679672 
	C131.931320,124.815163 133.021606,124.886757 134.111893,124.958344 
	C134.499100,124.547058 134.886307,124.135780 135.515961,123.557922 
	C135.361404,124.509094 134.964417,125.626831 134.289581,126.874001 
	C130.580551,125.677750 127.154610,124.338318 123.714996,123.034943 
	C122.708519,122.653557 121.663193,122.374725 120.234604,122.064270 
M130.489655,118.552765 
	C130.489655,118.552765 130.454727,118.482986 130.489655,118.552765 
z"/>
<path fill="#8AE415" opacity="1.000000" stroke="none" 
	d="
M123.961273,129.761047 
	C123.037216,128.653305 122.121605,127.177643 121.168045,125.356918 
	C122.076637,126.472275 123.023170,127.932701 123.961273,129.761047 
z"/>
<path fill="#7ECA0B" opacity="1.000000" stroke="none" 
	d="
M32.445866,156.077606 
	C31.991560,155.590942 31.863426,155.187958 32.017319,154.246704 
	C31.782614,152.839111 31.265890,151.969788 30.749166,151.100449 
	C30.749166,151.100449 30.418585,151.065308 30.276974,150.577484 
	C30.110119,148.389343 30.084879,146.689026 30.269489,144.780579 
	C30.599653,144.199234 30.719965,143.825989 30.630405,143.266815 
	C30.453760,142.896912 30.486988,142.712952 30.835350,142.805511 
	C32.041569,144.574753 32.932652,146.067474 33.650322,147.269699 
	C36.528366,146.482468 39.210823,145.748734 42.058617,145.291504 
	C42.866028,148.607697 43.508106,151.647369 44.150185,154.687042 
	C44.100487,155.517731 44.103630,156.355576 43.992390,157.177948 
	C43.343307,161.976334 40.986893,163.006851 37.037930,160.097626 
	C35.489632,158.957001 34.186710,157.483292 32.445866,156.077606 
z"/>
<path fill="#C2ED75" opacity="1.000000" stroke="none" 
	d="
M44.419525,154.892838 
	C43.508106,151.647369 42.866028,148.607697 42.092735,145.017242 
	C41.809296,143.948929 41.657070,143.431427 41.450500,142.646988 
	C41.350922,142.204193 41.305691,142.028320 41.310486,141.495544 
	C42.183842,139.487030 43.007168,137.835449 43.830498,136.183853 
	C42.731087,144.269638 45.623135,151.631256 48.002411,159.479691 
	C46.908749,158.279892 45.798805,156.689270 44.419525,154.892838 
z"/>
<path fill="#D3F296" opacity="1.000000" stroke="none" 
	d="
M29.481899,124.301422 
	C28.806604,129.349472 27.550140,134.423370 26.889801,139.573669 
	C26.453773,142.974472 26.874470,146.485107 26.869347,150.343643 
	C26.162188,148.268021 25.271019,145.828445 24.902723,143.312332 
	C24.598898,141.236664 24.913965,139.070419 24.965418,136.480759 
	C26.368710,132.131378 27.761364,128.245544 29.481899,124.301422 
z"/>
<path fill="#7DB50F" opacity="1.000000" stroke="none" 
	d="
M128.241226,169.919876 
	C128.138184,169.717041 128.335526,169.453323 128.820602,169.117676 
	C128.847382,169.262909 128.658478,169.533997 128.241226,169.919876 
z"/>
<path fill="#C6EF88" opacity="1.000000" stroke="none" 
	d="
M30.059639,144.988693 
	C30.084879,146.689026 30.110119,148.389343 30.123180,150.514420 
	C30.111000,150.939163 29.631397,150.982727 29.390844,150.993134 
	C26.427811,142.748062 28.434254,134.920578 31.747561,127.416107 
	C32.044300,129.385025 31.900782,131.109390 31.536236,133.112488 
	C31.050211,136.437149 30.785213,139.483078 30.520218,142.528992 
	C30.486988,142.712952 30.453760,142.896912 30.361237,143.432465 
	C30.221172,144.185623 30.140406,144.587158 30.059639,144.988693 
z"/>
<path fill="#7FBF0F" opacity="1.000000" stroke="none" 
	d="
M30.747105,151.433258 
	C31.265890,151.969788 31.782614,152.839111 32.031048,153.926514 
	C31.423517,153.351730 31.084280,152.558884 30.747105,151.433258 
z"/>
<path fill="#87E111" opacity="1.000000" stroke="none" 
	d="
M31.757267,132.833755 
	C31.900782,131.109390 32.044300,129.385025 32.094906,127.234207 
	C32.668217,125.135735 33.334435,123.463730 34.423332,121.379471 
	C36.213455,117.955284 37.580894,114.943344 38.948334,111.931404 
	C38.948334,111.931404 38.990089,112.003853 39.253723,112.158157 
	C39.955441,112.175301 40.393520,112.038139 40.831600,111.900986 
	C42.376171,114.642220 43.124725,119.399757 47.754848,114.639984 
	C47.831268,114.561409 49.883327,116.404663 51.047752,117.725159 
	C48.976955,122.968834 46.871872,127.838448 44.056091,132.873886 
	C40.166451,133.485321 36.987507,133.930923 33.077457,134.479019 
	C33.142540,134.560120 32.449902,133.696930 31.757267,132.833755 
z"/>
<path fill="#8AE415" opacity="1.000000" stroke="none" 
	d="
M110.933426,106.711914 
	C108.895027,104.513863 106.872536,101.944458 104.683395,99.103424 
	C106.660927,101.334724 108.805122,103.837646 110.933426,106.711914 
z"/>
<path fill="#D1F197" opacity="1.000000" stroke="none" 
	d="
M43.266289,105.908188 
	C43.703217,104.323250 44.482731,102.641861 45.644836,100.885620 
	C45.221249,102.477760 44.415062,104.144737 43.266289,105.908188 
z"/>
<path fill="#D3F39B" opacity="1.000000" stroke="none" 
	d="
M104.873672,76.901665 
	C106.282661,78.093697 107.642235,79.665154 109.040680,81.607506 
	C107.661125,80.412628 106.242691,78.846863 104.873672,76.901665 
z"/>
<path fill="#8AE415" opacity="1.000000" stroke="none" 
	d="
M104.339890,98.063232 
	C103.409828,97.504036 102.695305,96.599403 101.947456,95.385574 
	C102.794563,95.956848 103.675003,96.837318 104.339890,98.063232 
z"/>
<path fill="#8AE415" opacity="1.000000" stroke="none" 
	d="
M99.337189,92.060776 
	C98.461113,91.484917 97.800705,90.564095 97.030701,89.360184 
	C97.798355,89.956673 98.675598,90.836250 99.337189,92.060776 
z"/>
<path fill="#8AE415" opacity="1.000000" stroke="none" 
	d="
M96.933289,88.705551 
	C95.996223,88.272179 95.069290,87.463905 94.028458,86.365646 
	C94.924179,86.827324 95.933800,87.578987 96.933289,88.705551 
z"/>
<path fill="#D3F39B" opacity="1.000000" stroke="none" 
	d="
M111.936340,86.245346 
	C112.674103,86.957733 113.310059,87.987518 113.919174,89.391586 
	C113.206398,88.698158 112.520470,87.630440 111.936340,86.245346 
z"/>
<path fill="#8AE415" opacity="1.000000" stroke="none" 
	d="
M101.930916,94.700714 
	C101.238976,94.497559 100.554909,93.914307 99.728264,93.102554 
	C100.370056,93.356247 101.154427,93.838432 101.930916,94.700714 
z"/>
<path fill="#D1F197" opacity="1.000000" stroke="none" 
	d="
M40.877132,111.525459 
	C40.393520,112.038139 39.955441,112.175301 39.226463,112.125595 
	C39.397663,110.996826 39.859753,110.054932 40.643547,109.022354 
	C40.951054,109.671089 40.936859,110.410507 40.877132,111.525459 
z"/>
<path fill="#D3F39B" opacity="1.000000" stroke="none" 
	d="
M109.921822,83.287994 
	C110.702728,83.722885 111.362617,84.515671 112.048996,85.639389 
	C111.317261,85.195511 110.559029,84.420700 109.921822,83.287994 
z"/>
<path fill="#D1F197" opacity="1.000000" stroke="none" 
	d="
M41.263466,108.942375 
	C41.350513,107.986153 41.779938,106.978935 42.591991,105.951385 
	C42.518360,106.917831 42.062099,107.904610 41.263466,108.942375 
z"/>
<path fill="#D3F39B" opacity="1.000000" stroke="none" 
	d="
M100.954231,72.521744 
	C101.626106,72.508316 102.330315,72.858528 103.049683,73.578094 
	C102.372078,73.593422 101.679321,73.239403 100.954231,72.521744 
z"/>
<path fill="#D3F39B" opacity="1.000000" stroke="none" 
	d="
M102.916199,74.285553 
	C103.700005,74.529091 104.357391,75.129631 104.974754,76.142761 
	C104.219742,75.917755 103.504768,75.280159 102.916199,74.285553 
z"/>
<path fill="#8AE415" opacity="1.000000" stroke="none" 
	d="
M93.942787,85.810654 
	C93.611038,85.630890 93.298553,85.177200 92.963989,84.419777 
	C93.281960,84.589600 93.622002,85.063171 93.942787,85.810654 
z"/>
<path fill="#D3F39B" opacity="1.000000" stroke="none" 
	d="
M108.967438,82.263329 
	C109.344116,82.091789 109.656021,82.258247 110.021942,82.696487 
	C109.684853,82.845955 109.293755,82.723640 108.967438,82.263329 
z"/>
<path fill="#D1F197" opacity="1.000000" stroke="none" 
	d="
M38.606869,112.046982 
	C37.580894,114.943344 36.213455,117.955284 34.502251,121.028000 
	C35.527462,118.113365 36.896435,115.137962 38.606869,112.046982 
z"/>
<path fill="#D9F3A7" opacity="1.000000" stroke="none" 
	d="
M131.152115,115.964142 
	C130.076599,114.187027 129.001083,112.409912 127.991486,110.260887 
	C128.692871,110.009079 129.328323,110.129181 130.331848,110.568069 
	C130.699890,110.886864 130.724823,110.701698 130.790741,110.690094 
	C130.856659,110.678497 130.853516,110.823700 130.881821,111.219002 
	C130.990799,113.064247 131.071457,114.514198 131.152115,115.964142 
z"/>
<path fill="#86D813" opacity="1.000000" stroke="none" 
	d="
M134.021240,124.639397 
	C133.021606,124.886757 131.931320,124.815163 129.867966,124.679672 
	C130.924881,122.801323 131.686310,121.448105 133.025024,120.087135 
	C133.897690,120.274231 134.051651,120.548462 134.064209,120.902077 
	C134.064209,120.902077 134.135849,121.073494 133.825882,121.185303 
	C133.583405,121.868553 133.650879,122.439987 133.718369,123.011429 
	C133.789108,123.447769 133.859848,123.884102 134.021240,124.639397 
z"/>
<path fill="#000000" opacity="1.000000" stroke="none" 
	d="
M134.411041,120.795959 
	C134.051651,120.548462 133.897690,120.274231 133.370514,120.002754 
	C133.086105,119.453339 133.033493,118.980545 133.229050,118.223206 
	C133.970688,117.647942 134.464142,117.357239 134.957611,117.066544 
	C134.891037,118.274315 134.824448,119.482079 134.411041,120.795959 
z"/>
<path fill="#E7F4C4" opacity="1.000000" stroke="none" 
	d="
M134.970596,116.763969 
	C134.464142,117.357239 133.970688,117.647942 133.184418,117.868423 
	C132.891586,117.798195 132.920258,117.885193 133.037430,117.577271 
	C133.251389,116.863312 133.348175,116.457275 133.444977,116.051247 
	C133.444977,116.051247 133.496017,116.107460 133.527863,116.087708 
	C133.796295,115.966942 134.032883,115.865913 134.652756,115.811440 
	C135.018539,116.059128 135.001053,116.260269 134.970596,116.763969 
z"/>
<path fill="#8AE415" opacity="1.000000" stroke="none" 
	d="
M133.803162,122.710907 
	C133.650879,122.439987 133.583405,121.868553 133.746185,121.233017 
	C133.946945,121.582733 133.917450,121.996559 133.803162,122.710907 
z"/>
<path fill="#000000" opacity="1.000000" stroke="none" 
	d="
M131.378891,115.957245 
	C131.071457,114.514198 130.990799,113.064247 130.928879,111.274307 
	C130.947632,110.934311 131.421539,111.040123 131.662689,111.068367 
	C131.926178,112.471886 131.948547,113.847168 132.010162,115.633759 
	C132.049423,116.045074 131.605667,115.950356 131.378891,115.957245 
z"/>
<path fill="#86D813" opacity="1.000000" stroke="none" 
	d="
M133.107574,115.983871 
	C133.348175,116.457275 133.251389,116.863312 133.083221,117.577011 
	C132.689240,117.457481 132.366623,117.030281 132.067169,116.313171 
	C132.316925,115.987671 132.543533,115.952087 133.107574,115.983871 
z"/>
<path fill="#84D510" opacity="1.000000" stroke="none" 
	d="
M31.536236,133.112488 
	C32.449902,133.696930 33.142540,134.560120 33.077457,134.479019 
	C36.987507,133.930923 40.166451,133.485321 43.736496,133.063171 
	C44.086231,133.863449 44.044868,134.640259 43.917000,135.800461 
	C43.007168,137.835449 42.183842,139.487030 41.126038,141.630005 
	C41.095993,142.385544 41.300419,142.649734 41.504845,142.913910 
	C41.657070,143.431427 41.809296,143.948929 41.927399,144.740723 
	C39.210823,145.748734 36.528366,146.482468 33.650322,147.269699 
	C32.932652,146.067474 32.041569,144.574753 30.835350,142.805511 
	C30.785213,139.483078 31.050211,136.437149 31.536236,133.112488 
z"/>
<path fill="#7DB50F" opacity="1.000000" stroke="none" 
	d="
M116.644562,163.967957 
	C116.624008,164.395325 116.364471,164.904953 115.804230,165.316742 
	C115.804207,164.829361 116.104889,164.439774 116.644562,163.967957 
z"/>
<path fill="#86D813" opacity="1.000000" stroke="none" 
	d="
M130.472198,118.517876 
	C130.454727,118.482986 130.489655,118.552765 130.472198,118.517876 
z"/>
<path fill="#84D510" opacity="1.000000" stroke="none" 
	d="
M30.269489,144.780579 
	C30.140406,144.587158 30.221172,144.185623 30.571108,143.618423 
	C30.719965,143.825989 30.599653,144.199234 30.269489,144.780579 
z"/>
<path fill="#7ECA0B" opacity="1.000000" stroke="none" 
	d="
M41.450500,142.646988 
	C41.300419,142.649734 41.095993,142.385544 41.076015,141.986908 
	C41.305691,142.028320 41.350922,142.204193 41.450500,142.646988 
z"/>
</svg>