<svg version="1.1" id="Layer_1" xmlns="http://www.w3.org/2000/svg" xmlns:xlink="http://www.w3.org/1999/xlink" x="0px" y="0px"
	 width="100%" viewBox="0 0 1024 544" enable-background="new 0 0 1024 544" xml:space="preserve">
<path fill="#000000" opacity="1.000000" stroke="none" 
	d="
M673.664429,319.038208 
	C653.648804,321.317322 633.993103,319.809357 614.373779,320.231232 
	C611.402588,320.295105 610.384094,319.115387 610.382812,316.045105 
	C610.370483,287.264374 610.198303,258.483734 610.101807,229.702957 
	C610.095093,227.711349 610.307068,225.717773 610.446472,223.727142 
	C610.981140,216.096558 610.986084,216.036514 618.501648,216.106888 
	C634.788757,216.259384 651.111755,215.874619 667.351257,216.852203 
	C681.995911,217.733780 695.430542,222.849655 705.440613,234.224426 
	C726.459106,258.108337 723.319763,304.289368 680.863708,317.246307 
	C678.639221,317.925171 676.352173,318.398895 673.664429,319.038208 
M690.860474,265.727325 
	C689.869019,251.386688 681.856506,241.920624 667.861511,238.656937 
	C658.657349,236.510483 649.298523,237.538071 639.996765,237.436951 
	C637.244019,237.407013 636.290100,238.844009 636.301514,241.536362 
	C636.376404,259.186249 636.388611,276.836731 636.319336,294.486603 
	C636.307495,297.499817 637.534119,298.702393 640.466309,298.663727 
	C647.624329,298.569336 654.801208,298.884460 661.939087,298.480286 
	C679.733887,297.472656 692.227905,284.856750 690.860474,265.727325 
z"/>
<path fill="#000000" opacity="1.000000" stroke="none" 
	d="
M319.633789,274.031372 
	C319.545441,256.563629 319.578217,239.587402 319.296387,222.616409 
	C319.211304,217.493530 321.475830,216.014557 326.166412,216.032516 
	C349.632507,216.122406 373.099396,216.102478 396.565491,215.998703 
	C400.812317,215.979935 403.294464,216.940796 402.529144,221.933456 
	C402.105591,224.696854 402.420776,227.574341 402.413025,230.400421 
	C402.394043,237.301331 402.396423,237.367813 395.258881,237.372345 
	C380.936707,237.381424 366.610687,237.484802 352.294281,237.176590 
	C347.348206,237.070099 345.583588,238.862198 346.232880,243.564438 
	C346.368225,244.544510 346.253845,245.560211 346.241272,246.559341 
	C346.110901,256.921265 346.110107,256.902191 356.719299,256.877625 
	C367.877594,256.851837 379.036835,256.948395 390.193817,256.824585 
	C394.536438,256.776428 396.774567,258.247101 396.391541,262.939453 
	C396.121277,266.250366 396.087524,269.611572 396.318146,272.924591 
	C396.608246,277.091614 394.535156,278.039093 390.881989,277.903259 
	C377.773132,277.415710 364.644257,278.930176 351.535706,277.496185 
	C347.875061,277.095703 345.921295,278.631409 346.140991,282.664246 
	C346.367218,286.816071 346.241455,290.988922 346.212097,295.152130 
	C346.194672,297.626251 347.348602,299.094574 349.813416,298.801880 
	C365.062988,296.991241 380.373047,300.237244 395.600037,298.238403 
	C404.043884,297.130035 405.209930,298.051178 405.051941,306.669037 
	C404.993958,309.832489 404.932587,312.996857 404.948242,316.160400 
	C404.962708,319.080994 403.643372,320.282532 400.671143,320.275848 
	C375.189911,320.218445 349.708344,320.212494 324.227173,320.288208 
	C320.740204,320.298553 319.615051,318.862274 319.639923,315.491364 
	C319.740631,301.836639 319.652588,288.180481 319.633789,274.031372 
z"/>
<path fill="#000000" opacity="1.000000" stroke="none" 
	d="
M981.062317,260.131531 
	C991.579773,283.271423 984.059387,307.732941 963.356018,317.377411 
	C951.425598,322.935059 939.184753,322.988373 927.132629,317.265778 
	C922.095032,314.873810 921.384766,315.234039 921.331665,320.704285 
	C921.257263,328.368958 921.197388,336.036957 921.349182,343.699219 
	C921.416992,347.122070 920.199097,348.500977 916.703979,348.392303 
	C911.378296,348.226776 906.033569,348.248840 900.712524,348.509155 
	C897.197388,348.681122 895.963196,347.411591 896.086060,343.912109 
	C897.220947,311.602539 896.281799,279.280090 896.587402,246.964340 
	C896.651917,240.142212 896.626892,240.132233 903.625977,240.043381 
	C906.458313,240.007416 909.291321,240.017166 912.124023,240.018555 
	C919.092590,240.021973 919.092590,240.024857 921.250183,246.479263 
	C932.166504,238.567490 944.156799,237.088257 956.801697,240.807388 
	C967.319946,243.901016 975.448975,250.183243 981.062317,260.131531 
M921.977844,273.684753 
	C921.002258,276.926331 921.025940,280.248322 921.318481,283.561890 
	C922.121094,292.650940 930.010132,300.180573 939.182190,300.694824 
	C949.388489,301.267029 957.307556,295.504150 959.356934,286.013275 
	C961.846191,274.485687 956.327271,263.568268 946.485596,260.551788 
	C936.080872,257.362671 926.137512,262.417908 921.977844,273.684753 
z"/>
<path fill="#000000" opacity="1.000000" stroke="none" 
	d="
M591.422791,262.788940 
	C599.926758,284.139526 593.729431,304.804474 574.527588,315.307648 
	C551.390625,327.963226 517.882446,321.590698 506.948212,295.663879 
	C497.973267,274.382812 508.651276,249.890533 530.604004,242.328979 
	C546.883545,236.721542 562.633057,237.558731 577.577148,246.939850 
	C583.733826,250.804749 588.054077,256.081909 591.422791,262.788940 
M558.487793,261.832092 
	C557.229309,261.406067 555.966492,260.992401 554.713074,260.551941 
	C546.909058,257.809723 540.005981,259.863312 534.714050,265.662933 
	C528.738647,272.211700 527.709961,280.210938 531.021545,288.472137 
	C534.102600,296.158386 540.075500,300.207001 548.270386,300.701141 
	C557.971985,301.286133 565.692749,295.985626 568.532166,287.110565 
	C571.675171,277.286591 568.158447,267.919586 558.487793,261.832092 
z"/>
<path fill="#000000" opacity="1.000000" stroke="none" 
	d="
M874.431519,304.361877 
	C856.165039,327.970367 817.747559,325.297882 801.003296,306.639832 
	C784.144592,287.854309 789.739563,256.789795 812.715698,244.826996 
	C827.984924,236.876923 843.912659,236.707352 859.368408,244.055206 
	C882.541199,255.071762 889.414246,282.988220 874.431519,304.361877 
M832.419983,300.261261 
	C844.163574,301.798523 851.886414,297.412201 855.635254,287.075745 
	C858.808960,278.325073 855.409607,267.406738 847.891724,262.817535 
	C840.587402,258.358643 833.022949,258.156464 825.746216,262.705170 
	C818.657104,267.136688 816.301392,274.473175 816.900818,282.118195 
	C817.598511,291.017151 822.241272,297.751709 832.419983,300.261261 
z"/>
<path fill="#000000" opacity="1.000000" stroke="none" 
	d="
M149.422119,411.480865 
	C141.339523,396.707764 136.959778,381.631866 141.781052,365.167664 
	C146.991364,347.374908 159.286423,336.547485 176.530762,331.012512 
	C185.782944,328.042816 195.458160,326.482849 204.698151,322.602112 
	C199.499557,339.353394 187.410461,351.050018 176.473526,363.549072 
	C178.143143,365.003937 178.797791,363.546722 179.575043,362.971558 
	C195.831848,350.941559 208.119522,335.655487 216.431915,317.261658 
	C218.097290,313.576477 221.133148,311.402344 224.076416,309.679535 
	C232.839233,304.550446 239.756134,297.408386 246.925674,290.487610 
	C247.515976,289.917786 248.073593,289.252960 249.108994,289.465759 
	C250.305206,290.817413 249.097595,291.899139 248.575500,292.982605 
	C237.550217,315.862915 223.501678,336.870361 208.512146,357.274719 
	C194.492157,376.359283 178.591003,393.821930 161.948074,410.627838 
	C161.245514,411.337341 160.553436,412.060089 159.896866,412.811890 
	C154.211716,419.321381 154.214478,419.323792 149.422119,411.480865 
z"/>
<path fill="#000000" opacity="1.000000" stroke="none" 
	d="
M252.769958,276.662842 
	C241.307907,293.063385 224.755157,299.493652 206.231842,302.229065 
	C202.455139,302.786774 198.607056,303.208008 194.802292,303.136719 
	C190.511337,303.056366 189.385025,305.136444 189.320465,308.945831 
	C189.254303,312.849396 190.123566,316.837433 188.512253,321.748688 
	C172.543365,310.266327 157.025757,299.108459 140.732056,287.392517 
	C156.359207,274.051605 172.272430,262.789795 188.170288,250.715317 
	C190.352188,255.408127 189.192245,259.786926 189.574463,263.936401 
	C189.986267,268.406769 191.749237,269.878479 196.185730,269.797577 
	C206.343704,269.612183 216.473389,269.673462 226.400604,266.969910 
	C242.710556,262.528076 254.626099,253.761475 257.590424,235.942581 
	C257.670654,235.460312 257.865906,234.992493 258.050262,234.535172 
	C258.103210,234.403809 258.306122,234.332886 259.045410,233.789246 
	C263.034332,249.108597 260.793488,263.096252 252.769958,276.662842 
z"/>
<path fill="#000000" opacity="1.000000" stroke="none" 
	d="
M421.321350,303.594971 
	C406.230835,284.430542 413.272888,249.829010 444.233459,241.217194 
	C461.617676,236.381714 478.286285,237.775696 492.314941,250.902634 
	C492.679626,251.243881 493.027588,251.604858 493.364014,251.974243 
	C499.186951,258.367493 498.985474,259.293732 491.240601,263.294769 
	C487.986359,264.975922 484.786407,266.774658 481.648102,268.663361 
	C479.560486,269.919739 478.099579,269.789093 476.625885,267.665344 
	C472.188599,261.270844 465.925995,259.365936 458.328583,259.865875 
	C448.653076,260.502472 442.768280,266.234406 440.448242,275.241150 
	C438.056458,284.526367 441.934814,293.875061 449.445435,298.140137 
	C457.443695,302.682129 468.638123,301.808563 474.236694,294.869873 
	C478.275330,289.864563 481.571808,289.916351 486.209503,293.041840 
	C487.989899,294.241730 490.099030,294.941284 491.990936,295.990387 
	C498.620758,299.666840 498.792969,299.917694 494.612671,306.016327 
	C488.347137,315.157166 478.956299,319.430450 468.460571,320.839600 
	C455.658661,322.558380 443.198395,321.038269 431.945343,313.867310 
	C427.800690,311.226135 424.646729,307.586670 421.321350,303.594971 
z"/>
<path fill="#000000" opacity="1.000000" stroke="none" 
	d="
M79.679924,300.372498 
	C68.919640,294.151337 60.009968,286.316559 54.541908,275.521606 
	C46.064438,258.785461 48.502308,241.921265 55.733398,225.406097 
	C57.531254,221.299957 59.468109,217.135498 62.084198,213.538269 
	C65.066956,209.436859 63.475159,207.530441 59.904324,205.403763 
	C56.539959,203.400024 52.534725,202.182861 49.559681,197.455093 
	C67.754219,190.937225 85.584610,184.549789 104.562904,177.751160 
	C106.578850,198.005310 108.516190,217.469681 110.605949,238.465500 
	C105.442711,235.125076 101.494232,232.788940 97.792625,230.111511 
	C94.406326,227.662170 92.300583,228.434357 90.153671,231.809937 
	C84.339508,240.951477 78.371048,249.995728 75.257637,260.517792 
	C70.761757,275.712006 72.162277,289.520203 84.903114,300.586304 
	C85.270996,300.905823 85.596893,301.313171 85.820953,301.742859 
	C85.941101,301.973328 85.802223,302.338837 85.761642,302.900787 
	C83.396347,303.164825 81.869820,301.383545 79.679924,300.372498 
z"/>
<path fill="#000000" opacity="1.000000" stroke="none" 
	d="
M184.086090,188.107147 
	C175.123474,184.940689 166.537247,181.886398 157.470215,178.661072 
	C159.810883,174.661880 163.723373,173.336990 166.988907,171.445633 
	C171.212128,168.999603 171.890564,166.623306 169.268082,162.313843 
	C162.958237,151.945145 157.534744,141.017700 148.013626,132.960190 
	C140.181213,126.331810 131.664764,122.185242 121.037750,124.192055 
	C119.674683,124.449455 118.116920,124.922020 116.306519,123.774368 
	C117.846909,121.475220 120.140442,120.167999 122.319366,118.878654 
	C141.345001,107.620522 163.462585,109.484428 180.495987,123.574638 
	C187.744080,129.570358 194.140945,136.295822 198.888321,144.437714 
	C200.967041,148.002792 202.917145,148.543030 206.408554,145.993958 
	C209.820160,143.503159 213.820816,141.819183 218.794632,139.110153 
	C217.604309,159.470947 215.569244,178.557449 213.472488,198.051987 
	C202.896576,195.694016 193.978271,191.053894 184.086090,188.107147 
z"/>
<path fill="#000000" opacity="1.000000" stroke="none" 
	d="
M124.495956,262.498444 
	C128.802582,258.305573 132.824921,254.318787 136.895813,250.382233 
	C138.299591,249.024811 139.701309,247.148575 141.903885,249.250275 
	C144.209656,251.450500 142.619247,253.105957 141.064392,254.729279 
	C137.262299,258.698883 133.425446,262.635590 129.657043,266.636841 
	C128.558884,267.802856 127.011223,268.744354 127.067284,271.004883 
	C130.358459,272.396271 133.360168,272.142975 136.016846,269.458954 
	C142.580154,262.828156 149.115204,256.169159 155.711700,249.571579 
	C157.369843,247.913193 157.787949,246.015381 157.943207,243.733063 
	C158.264236,239.013733 161.729034,235.781204 165.956558,235.776382 
	C170.109207,235.771652 173.807159,239.022217 174.203217,243.025375 
	C174.602386,247.060074 171.447128,251.119980 166.756775,251.429459 
	C163.033096,251.675125 160.403107,253.316574 158.199799,255.845917 
	C154.441681,260.160156 149.469009,263.407776 146.436142,268.415497 
	C148.939896,270.923065 151.658325,268.091736 154.053284,269.703094 
	C154.214584,271.850922 152.274078,272.585846 150.996170,273.619598 
	C146.983185,276.865997 142.858963,279.974884 138.777664,283.136841 
	C134.186081,286.694153 134.329758,287.563202 139.183334,291.056366 
	C143.908691,294.457245 148.433151,298.138245 153.015762,301.734589 
	C153.351593,301.998108 153.443939,302.571869 153.831284,303.381287 
	C150.843887,305.174042 147.493088,305.232605 144.328629,305.745575 
	C131.613754,307.806793 118.849556,308.573822 106.077042,306.313721 
	C84.826294,302.553375 72.674507,284.962738 77.702309,265.350372 
	C77.896400,264.593262 78.298698,263.889557 78.524689,263.350189 
	C80.404404,262.700256 81.321983,263.891083 82.388443,264.583954 
	C91.718834,270.645905 102.146019,272.158661 112.981407,272.032471 
	C115.826279,271.999329 117.428688,270.028687 119.137459,268.208893 
	C120.845268,266.390137 122.533752,264.553192 124.495956,262.498444 
z"/>
<path fill="#000000" opacity="1.000000" stroke="none" 
	d="
M87.038109,337.906891 
	C78.063492,324.027283 69.363853,310.406525 63.067596,295.163788 
	C89.144554,320.480164 120.523849,332.081146 156.761444,332.967346 
	C135.761322,350.277832 130.336853,372.103271 135.693283,397.734589 
	C117.270882,379.430328 101.393600,359.522491 87.038109,337.906891 
z"/>
<path fill="#000000" opacity="1.000000" stroke="none" 
	d="
M245.433716,252.424484 
	C240.586548,257.460602 235.012451,260.405823 228.902298,262.084015 
	C227.364273,260.308197 227.747208,258.769867 227.853561,257.314056 
	C228.210876,252.422989 227.494263,247.708588 225.937836,243.060684 
	C222.308334,232.221893 222.352646,232.147339 211.131287,231.470322 
	C208.779114,231.328430 207.005447,230.460968 205.404633,228.883362 
	C200.776932,224.322723 196.124725,219.786926 191.485580,215.237869 
	C186.843124,210.685593 183.847519,210.521408 178.719864,214.547104 
	C175.281448,217.246597 170.507141,217.112411 167.795578,214.240021 
	C165.191528,211.481567 165.039551,206.470459 167.475006,203.670349 
	C170.183685,200.556137 175.108307,199.650253 178.306641,202.388062 
	C181.072723,204.755859 183.966507,205.725494 187.404510,205.617874 
	C190.003952,205.536530 191.714615,206.991302 193.404953,208.700378 
	C198.208450,213.557129 203.094391,218.332214 207.923721,223.163605 
	C210.027023,225.267853 212.196487,226.893188 215.819885,224.673370 
	C211.001694,214.857666 202.426407,207.914978 195.783310,198.041016 
	C203.679779,198.618347 209.538086,202.679138 216.569626,203.316849 
	C219.521011,194.007980 218.708389,184.238617 220.597931,174.853439 
	C221.619980,175.013153 222.256744,174.914337 222.533417,175.184402 
	C235.219238,187.567612 247.796768,200.186630 252.884003,217.807968 
	C256.475433,230.248184 255.531891,242.279694 245.433716,252.424484 
z"/>
<path fill="#000000" opacity="1.000000" stroke="none" 
	d="
M732.652344,294.999908 
	C732.656006,278.178162 732.750488,261.855255 732.574951,245.535278 
	C732.531372,241.483749 733.777527,239.636246 737.973267,239.919296 
	C741.124207,240.131866 744.299500,239.972015 747.463806,239.999786 
	C752.225159,240.041565 758.125671,238.451355 756.526672,246.506836 
	C758.734802,247.279938 759.742371,246.272934 760.768372,245.484985 
	C766.866760,240.801590 774.041382,239.642609 781.415405,239.055984 
	C784.001343,238.850266 785.106262,239.980652 785.068359,242.507111 
	C784.993347,247.502380 784.982788,252.498581 784.916992,257.494049 
	C784.880249,260.281769 783.787720,261.503357 780.645630,261.505371 
	C764.831665,261.515503 758.334839,268.116486 758.167114,284.058563 
	C758.058472,294.383850 757.946777,304.711639 758.072327,315.035492 
	C758.119141,318.885315 756.804565,320.475708 752.854187,320.296997 
	C747.701599,320.063934 742.527283,320.123962 737.368713,320.275879 
	C733.885498,320.378479 732.253662,319.497711 732.493835,315.478363 
	C732.890442,308.839600 732.628113,302.161407 732.652344,294.999908 
z"/>
<path fill="#000000" opacity="1.000000" stroke="none" 
	d="
M135.921722,129.757080 
	C141.254395,132.029099 145.543961,135.052643 148.866974,139.176071 
	C148.481857,141.837006 146.300995,142.397202 144.764786,143.522736 
	C136.174774,149.816483 131.173828,157.298111 132.602325,168.898224 
	C133.815536,178.750092 132.961884,188.859238 132.974136,198.854614 
	C132.978088,202.082062 133.457245,204.917389 135.751877,207.594772 
	C138.638535,210.962906 137.913330,216.140488 134.812958,218.881821 
	C131.650757,221.677872 127.080208,221.525620 123.939018,218.519653 
	C120.880119,215.592453 120.639870,210.746231 123.942101,207.312698 
	C126.125488,205.042526 126.815788,202.692719 126.781807,199.710999 
	C126.690689,191.715393 126.816048,183.717560 126.779236,175.720947 
	C126.771965,174.141388 127.331383,172.351898 125.188461,170.608231 
	C119.503891,178.589890 116.952934,188.082977 111.868355,197.490311 
	C109.495941,191.021622 109.312607,185.297028 108.764999,179.695129 
	C108.100723,172.899857 107.524536,172.362671 101.264458,174.543884 
	C94.739883,176.817230 88.440964,179.791626 80.905212,181.466721 
	C85.903183,163.599045 92.664017,147.394730 106.263908,135.314819 
	C114.523018,127.978783 124.555069,125.160202 135.921722,129.757080 
z"/>
<path fill="#000000" opacity="1.000000" stroke="none" 
	d="
M232.450058,178.547043 
	C231.755722,177.801514 231.355667,177.230286 230.817291,176.860474 
	C221.424133,170.408600 220.559906,161.362305 223.141830,151.353561 
	C224.286240,146.917267 222.695084,142.031555 225.246521,137.753983 
	C255.194992,157.565460 273.771759,206.446808 264.857666,238.159683 
	C261.087585,227.547607 258.974731,216.358185 253.131088,206.466141 
	C247.241592,196.496460 240.126129,187.564987 232.450058,178.547043 
z"/>
<path fill="#000000" opacity="1.000000" stroke="none" 
	d="
M64.130310,187.272247 
	C58.468266,189.242447 53.179848,191.103363 47.766644,193.008194 
	C46.061440,172.616257 87.483459,125.086205 109.159203,122.825867 
	C106.070221,126.296570 103.350479,129.284927 100.704506,132.337234 
	C90.177101,144.481308 83.280670,158.727753 77.946350,173.650131 
	C75.437134,180.669479 71.987694,185.629959 64.130310,187.272247 
z"/>
<path fill="#000000" opacity="1.000000" stroke="none" 
	d="
M136.684540,311.656494 
	C143.530838,310.512299 149.923843,309.416595 156.301376,308.237122 
	C157.946396,307.932892 159.561676,307.343903 161.141693,308.320557 
	C167.202316,312.066956 172.765778,316.465210 178.445953,320.956787 
	C165.281296,330.513184 106.905670,322.499725 98.638000,309.676910 
	C111.419411,313.101746 123.814644,312.621857 136.684540,311.656494 
z"/>
<path fill="#000000" opacity="1.000000" stroke="none" 
	d="
M139.106659,231.481033 
	C138.723129,228.021484 139.192780,225.168365 141.536957,222.849991 
	C144.171906,220.244049 147.329712,219.405807 150.661423,220.961639 
	C154.430298,222.721588 155.834503,226.118820 155.181305,230.094376 
	C154.588852,233.700134 152.324417,236.601868 148.572342,236.408203 
	C144.437958,236.194809 142.184875,238.396881 139.720795,240.907242 
	C134.246674,246.484131 128.651047,251.942154 123.201607,257.542694 
	C121.341202,259.454651 119.340919,260.408813 116.616158,260.367737 
	C106.308067,260.212280 95.997124,260.253784 85.688286,260.132935 
	C83.816101,260.110992 81.230202,260.541534 81.270004,257.515869 
	C81.306953,254.706024 83.527298,254.079376 85.852966,254.063324 
	C94.832169,254.001343 103.812447,253.925583 112.790894,254.008545 
	C116.169319,254.039764 118.858154,253.067108 121.181870,250.522491 
	C126.994354,244.157379 133.875458,238.809616 139.106659,231.481033 
z"/>
<path fill="#000000" opacity="1.000000" stroke="none" 
	d="
M149.104477,184.344360 
	C149.179474,187.038712 151.065231,188.172043 152.201324,189.763367 
	C155.013641,193.702530 154.734589,198.228058 151.497360,201.031754 
	C148.318451,203.784943 143.581024,203.728638 140.540344,200.901550 
	C137.457733,198.035492 137.218445,193.250153 140.447540,189.714752 
	C142.313797,187.671463 142.942230,185.566940 142.915726,182.958450 
	C142.854782,176.961838 142.916534,170.964005 142.927032,164.966660 
	C142.935303,160.237701 149.262634,150.755112 153.534164,149.115143 
	C155.799088,148.245544 156.661911,149.688751 156.885559,151.497833 
	C156.994888,152.382278 156.672775,153.753586 156.038742,154.231140 
	C147.039429,161.009430 149.130951,170.758667 149.015411,179.917114 
	C148.998611,181.249130 149.049789,182.581985 149.104477,184.344360 
z"/>
<path fill="#000000" opacity="1.000000" stroke="none" 
	d="
M185.294724,235.712738 
	C181.744919,232.282227 181.052551,228.586639 183.326157,224.635910 
	C184.921997,221.862869 187.318420,220.197037 190.801956,221.037277 
	C195.371490,222.139496 198.189865,224.748596 198.153275,229.703766 
	C198.137222,231.880661 199.097687,233.463608 200.568359,234.947845 
	C203.958542,238.369308 206.911896,242.334427 210.690903,245.233841 
	C216.362579,249.585373 216.381027,255.307022 216.020584,261.385529 
	C215.898346,263.447083 215.151093,264.994019 212.779999,264.936157 
	C210.351776,264.876892 209.616104,263.151093 209.828491,261.174530 
	C211.139221,248.976074 200.271011,245.095306 193.938980,238.254822 
	C192.190796,236.366241 188.085205,238.010559 185.294724,235.712738 
z"/>
<path fill="#000000" opacity="1.000000" stroke="none" 
	d="
M201.002029,138.917877 
	C194.986145,129.981049 187.455597,122.878075 179.830688,115.667191 
	C194.355438,117.702019 207.018097,123.399811 218.873627,132.092590 
	C214.861862,136.481400 210.022537,138.415298 205.713531,141.085098 
	C203.615204,142.385193 202.379089,140.647171 201.002029,138.917877 
z"/>
<path fill="#000000" opacity="1.000000" stroke="none" 
	d="
M49.295677,228.265854 
	C47.172741,233.137817 46.259914,237.991470 44.575745,242.724030 
	C40.144993,229.491241 41.511883,216.310104 44.086956,202.269424 
	C48.718143,204.207245 52.378113,206.630157 55.994743,209.090637 
	C57.873348,210.368713 56.898239,211.957199 56.168060,213.492737 
	C53.890858,218.281601 51.663284,223.094025 49.295677,228.265854 
z"/>
</svg>